%TF.GenerationSoftware,KiCad,Pcbnew,(5.1.9)-1*%
%TF.CreationDate,2022-01-05T12:10:33+01:00*%
%TF.ProjectId,WLED_AudioJackAdapter,574c4544-5f41-4756-9469-6f4a61636b41,rev?*%
%TF.SameCoordinates,Original*%
%TF.FileFunction,Soldermask,Top*%
%TF.FilePolarity,Negative*%
%FSLAX46Y46*%
G04 Gerber Fmt 4.6, Leading zero omitted, Abs format (unit mm)*
G04 Created by KiCad (PCBNEW (5.1.9)-1) date 2022-01-05 12:10:33*
%MOMM*%
%LPD*%
G01*
G04 APERTURE LIST*
%ADD10C,1.500000*%
%ADD11R,1.200000X2.500000*%
%ADD12O,1.700000X1.700000*%
%ADD13R,1.700000X1.700000*%
G04 APERTURE END LIST*
D10*
%TO.C,J1*%
X134940000Y-81915000D03*
X127940000Y-81915000D03*
D11*
X129540000Y-78665000D03*
X132540000Y-78665000D03*
X136540000Y-78665000D03*
X137640000Y-85165000D03*
%TD*%
%TO.C,R4*%
G36*
G01*
X146500001Y-83785000D02*
X145599999Y-83785000D01*
G75*
G02*
X145350000Y-83535001I0J249999D01*
G01*
X145350000Y-82834999D01*
G75*
G02*
X145599999Y-82585000I249999J0D01*
G01*
X146500001Y-82585000D01*
G75*
G02*
X146750000Y-82834999I0J-249999D01*
G01*
X146750000Y-83535001D01*
G75*
G02*
X146500001Y-83785000I-249999J0D01*
G01*
G37*
G36*
G01*
X146500001Y-85785000D02*
X145599999Y-85785000D01*
G75*
G02*
X145350000Y-85535001I0J249999D01*
G01*
X145350000Y-84834999D01*
G75*
G02*
X145599999Y-84585000I249999J0D01*
G01*
X146500001Y-84585000D01*
G75*
G02*
X146750000Y-84834999I0J-249999D01*
G01*
X146750000Y-85535001D01*
G75*
G02*
X146500001Y-85785000I-249999J0D01*
G01*
G37*
%TD*%
%TO.C,R3*%
G36*
G01*
X146500001Y-79245000D02*
X145599999Y-79245000D01*
G75*
G02*
X145350000Y-78995001I0J249999D01*
G01*
X145350000Y-78294999D01*
G75*
G02*
X145599999Y-78045000I249999J0D01*
G01*
X146500001Y-78045000D01*
G75*
G02*
X146750000Y-78294999I0J-249999D01*
G01*
X146750000Y-78995001D01*
G75*
G02*
X146500001Y-79245000I-249999J0D01*
G01*
G37*
G36*
G01*
X146500001Y-81245000D02*
X145599999Y-81245000D01*
G75*
G02*
X145350000Y-80995001I0J249999D01*
G01*
X145350000Y-80294999D01*
G75*
G02*
X145599999Y-80045000I249999J0D01*
G01*
X146500001Y-80045000D01*
G75*
G02*
X146750000Y-80294999I0J-249999D01*
G01*
X146750000Y-80995001D01*
G75*
G02*
X146500001Y-81245000I-249999J0D01*
G01*
G37*
%TD*%
%TO.C,R2*%
G36*
G01*
X142205000Y-85274999D02*
X142205000Y-86175001D01*
G75*
G02*
X141955001Y-86425000I-249999J0D01*
G01*
X141254999Y-86425000D01*
G75*
G02*
X141005000Y-86175001I0J249999D01*
G01*
X141005000Y-85274999D01*
G75*
G02*
X141254999Y-85025000I249999J0D01*
G01*
X141955001Y-85025000D01*
G75*
G02*
X142205000Y-85274999I0J-249999D01*
G01*
G37*
G36*
G01*
X144205000Y-85274999D02*
X144205000Y-86175001D01*
G75*
G02*
X143955001Y-86425000I-249999J0D01*
G01*
X143254999Y-86425000D01*
G75*
G02*
X143005000Y-86175001I0J249999D01*
G01*
X143005000Y-85274999D01*
G75*
G02*
X143254999Y-85025000I249999J0D01*
G01*
X143955001Y-85025000D01*
G75*
G02*
X144205000Y-85274999I0J-249999D01*
G01*
G37*
%TD*%
%TO.C,R1*%
G36*
G01*
X142205000Y-77654999D02*
X142205000Y-78555001D01*
G75*
G02*
X141955001Y-78805000I-249999J0D01*
G01*
X141254999Y-78805000D01*
G75*
G02*
X141005000Y-78555001I0J249999D01*
G01*
X141005000Y-77654999D01*
G75*
G02*
X141254999Y-77405000I249999J0D01*
G01*
X141955001Y-77405000D01*
G75*
G02*
X142205000Y-77654999I0J-249999D01*
G01*
G37*
G36*
G01*
X144205000Y-77654999D02*
X144205000Y-78555001D01*
G75*
G02*
X143955001Y-78805000I-249999J0D01*
G01*
X143254999Y-78805000D01*
G75*
G02*
X143005000Y-78555001I0J249999D01*
G01*
X143005000Y-77654999D01*
G75*
G02*
X143254999Y-77405000I249999J0D01*
G01*
X143955001Y-77405000D01*
G75*
G02*
X144205000Y-77654999I0J-249999D01*
G01*
G37*
%TD*%
D12*
%TO.C,J2*%
X149860000Y-84455000D03*
X149860000Y-81915000D03*
D13*
X149860000Y-79375000D03*
%TD*%
%TO.C,C2*%
G36*
G01*
X142192500Y-82710000D02*
X142192500Y-83660000D01*
G75*
G02*
X141942500Y-83910000I-250000J0D01*
G01*
X141267500Y-83910000D01*
G75*
G02*
X141017500Y-83660000I0J250000D01*
G01*
X141017500Y-82710000D01*
G75*
G02*
X141267500Y-82460000I250000J0D01*
G01*
X141942500Y-82460000D01*
G75*
G02*
X142192500Y-82710000I0J-250000D01*
G01*
G37*
G36*
G01*
X144267500Y-82710000D02*
X144267500Y-83660000D01*
G75*
G02*
X144017500Y-83910000I-250000J0D01*
G01*
X143342500Y-83910000D01*
G75*
G02*
X143092500Y-83660000I0J250000D01*
G01*
X143092500Y-82710000D01*
G75*
G02*
X143342500Y-82460000I250000J0D01*
G01*
X144017500Y-82460000D01*
G75*
G02*
X144267500Y-82710000I0J-250000D01*
G01*
G37*
%TD*%
%TO.C,C1*%
G36*
G01*
X142192500Y-80170000D02*
X142192500Y-81120000D01*
G75*
G02*
X141942500Y-81370000I-250000J0D01*
G01*
X141267500Y-81370000D01*
G75*
G02*
X141017500Y-81120000I0J250000D01*
G01*
X141017500Y-80170000D01*
G75*
G02*
X141267500Y-79920000I250000J0D01*
G01*
X141942500Y-79920000D01*
G75*
G02*
X142192500Y-80170000I0J-250000D01*
G01*
G37*
G36*
G01*
X144267500Y-80170000D02*
X144267500Y-81120000D01*
G75*
G02*
X144017500Y-81370000I-250000J0D01*
G01*
X143342500Y-81370000D01*
G75*
G02*
X143092500Y-81120000I0J250000D01*
G01*
X143092500Y-80170000D01*
G75*
G02*
X143342500Y-79920000I250000J0D01*
G01*
X144017500Y-79920000D01*
G75*
G02*
X144267500Y-80170000I0J-250000D01*
G01*
G37*
%TD*%
M02*
