%TF.GenerationSoftware,KiCad,Pcbnew,(5.1.9)-1*%
%TF.CreationDate,2022-01-05T12:10:33+01:00*%
%TF.ProjectId,WLED_AudioJackAdapter,574c4544-5f41-4756-9469-6f4a61636b41,rev?*%
%TF.SameCoordinates,Original*%
%TF.FileFunction,Copper,L2,Bot*%
%TF.FilePolarity,Positive*%
%FSLAX46Y46*%
G04 Gerber Fmt 4.6, Leading zero omitted, Abs format (unit mm)*
G04 Created by KiCad (PCBNEW (5.1.9)-1) date 2022-01-05 12:10:33*
%MOMM*%
%LPD*%
G01*
G04 APERTURE LIST*
%TA.AperFunction,ComponentPad*%
%ADD10O,1.700000X1.700000*%
%TD*%
%TA.AperFunction,ComponentPad*%
%ADD11R,1.700000X1.700000*%
%TD*%
%TA.AperFunction,Conductor*%
%ADD12C,0.254000*%
%TD*%
%TA.AperFunction,Conductor*%
%ADD13C,0.100000*%
%TD*%
G04 APERTURE END LIST*
D10*
%TO.P,J2,3*%
%TO.N,+3V3*%
X149860000Y-84455000D03*
%TO.P,J2,2*%
%TO.N,GND*%
X149860000Y-81915000D03*
D11*
%TO.P,J2,1*%
%TO.N,ADC*%
X149860000Y-79375000D03*
%TD*%
D12*
%TO.N,GND*%
X151739513Y-76225666D02*
X151740000Y-76230301D01*
X151740001Y-87597715D01*
X151739335Y-87604513D01*
X151734699Y-87605000D01*
X124492275Y-87605000D01*
X124485487Y-87604335D01*
X124485000Y-87599699D01*
X124485000Y-84308740D01*
X148375000Y-84308740D01*
X148375000Y-84601260D01*
X148432068Y-84888158D01*
X148544010Y-85158411D01*
X148706525Y-85401632D01*
X148913368Y-85608475D01*
X149156589Y-85770990D01*
X149426842Y-85882932D01*
X149713740Y-85940000D01*
X150006260Y-85940000D01*
X150293158Y-85882932D01*
X150563411Y-85770990D01*
X150806632Y-85608475D01*
X151013475Y-85401632D01*
X151175990Y-85158411D01*
X151287932Y-84888158D01*
X151345000Y-84601260D01*
X151345000Y-84308740D01*
X151287932Y-84021842D01*
X151175990Y-83751589D01*
X151013475Y-83508368D01*
X150806632Y-83301525D01*
X150624466Y-83179805D01*
X150741355Y-83110178D01*
X150957588Y-82915269D01*
X151131641Y-82681920D01*
X151256825Y-82419099D01*
X151301476Y-82271890D01*
X151180155Y-82042000D01*
X149987000Y-82042000D01*
X149987000Y-82062000D01*
X149733000Y-82062000D01*
X149733000Y-82042000D01*
X148539845Y-82042000D01*
X148418524Y-82271890D01*
X148463175Y-82419099D01*
X148588359Y-82681920D01*
X148762412Y-82915269D01*
X148978645Y-83110178D01*
X149095534Y-83179805D01*
X148913368Y-83301525D01*
X148706525Y-83508368D01*
X148544010Y-83751589D01*
X148432068Y-84021842D01*
X148375000Y-84308740D01*
X124485000Y-84308740D01*
X124485000Y-81778589D01*
X126555000Y-81778589D01*
X126555000Y-82051411D01*
X126608225Y-82318989D01*
X126712629Y-82571043D01*
X126864201Y-82797886D01*
X127057114Y-82990799D01*
X127283957Y-83142371D01*
X127536011Y-83246775D01*
X127803589Y-83300000D01*
X128076411Y-83300000D01*
X128343989Y-83246775D01*
X128596043Y-83142371D01*
X128822886Y-82990799D01*
X129015799Y-82797886D01*
X129167371Y-82571043D01*
X129271775Y-82318989D01*
X129325000Y-82051411D01*
X129325000Y-81778589D01*
X133555000Y-81778589D01*
X133555000Y-82051411D01*
X133608225Y-82318989D01*
X133712629Y-82571043D01*
X133864201Y-82797886D01*
X134057114Y-82990799D01*
X134283957Y-83142371D01*
X134536011Y-83246775D01*
X134803589Y-83300000D01*
X135076411Y-83300000D01*
X135343989Y-83246775D01*
X135596043Y-83142371D01*
X135822886Y-82990799D01*
X136015799Y-82797886D01*
X136167371Y-82571043D01*
X136271775Y-82318989D01*
X136325000Y-82051411D01*
X136325000Y-81778589D01*
X136271775Y-81511011D01*
X136167371Y-81258957D01*
X136015799Y-81032114D01*
X135822886Y-80839201D01*
X135596043Y-80687629D01*
X135343989Y-80583225D01*
X135076411Y-80530000D01*
X134803589Y-80530000D01*
X134536011Y-80583225D01*
X134283957Y-80687629D01*
X134057114Y-80839201D01*
X133864201Y-81032114D01*
X133712629Y-81258957D01*
X133608225Y-81511011D01*
X133555000Y-81778589D01*
X129325000Y-81778589D01*
X129271775Y-81511011D01*
X129167371Y-81258957D01*
X129015799Y-81032114D01*
X128822886Y-80839201D01*
X128596043Y-80687629D01*
X128343989Y-80583225D01*
X128076411Y-80530000D01*
X127803589Y-80530000D01*
X127536011Y-80583225D01*
X127283957Y-80687629D01*
X127057114Y-80839201D01*
X126864201Y-81032114D01*
X126712629Y-81258957D01*
X126608225Y-81511011D01*
X126555000Y-81778589D01*
X124485000Y-81778589D01*
X124485000Y-78525000D01*
X148371928Y-78525000D01*
X148371928Y-80225000D01*
X148384188Y-80349482D01*
X148420498Y-80469180D01*
X148479463Y-80579494D01*
X148558815Y-80676185D01*
X148655506Y-80755537D01*
X148765820Y-80814502D01*
X148846466Y-80838966D01*
X148762412Y-80914731D01*
X148588359Y-81148080D01*
X148463175Y-81410901D01*
X148418524Y-81558110D01*
X148539845Y-81788000D01*
X149733000Y-81788000D01*
X149733000Y-81768000D01*
X149987000Y-81768000D01*
X149987000Y-81788000D01*
X151180155Y-81788000D01*
X151301476Y-81558110D01*
X151256825Y-81410901D01*
X151131641Y-81148080D01*
X150957588Y-80914731D01*
X150873534Y-80838966D01*
X150954180Y-80814502D01*
X151064494Y-80755537D01*
X151161185Y-80676185D01*
X151240537Y-80579494D01*
X151299502Y-80469180D01*
X151335812Y-80349482D01*
X151348072Y-80225000D01*
X151348072Y-78525000D01*
X151335812Y-78400518D01*
X151299502Y-78280820D01*
X151240537Y-78170506D01*
X151161185Y-78073815D01*
X151064494Y-77994463D01*
X150954180Y-77935498D01*
X150834482Y-77899188D01*
X150710000Y-77886928D01*
X149010000Y-77886928D01*
X148885518Y-77899188D01*
X148765820Y-77935498D01*
X148655506Y-77994463D01*
X148558815Y-78073815D01*
X148479463Y-78170506D01*
X148420498Y-78280820D01*
X148384188Y-78400518D01*
X148371928Y-78525000D01*
X124485000Y-78525000D01*
X124485000Y-76232275D01*
X124485666Y-76225487D01*
X124490301Y-76225000D01*
X151732725Y-76225000D01*
X151739513Y-76225666D01*
%TA.AperFunction,Conductor*%
D13*
G36*
X151739513Y-76225666D02*
G01*
X151740000Y-76230301D01*
X151740001Y-87597715D01*
X151739335Y-87604513D01*
X151734699Y-87605000D01*
X124492275Y-87605000D01*
X124485487Y-87604335D01*
X124485000Y-87599699D01*
X124485000Y-84308740D01*
X148375000Y-84308740D01*
X148375000Y-84601260D01*
X148432068Y-84888158D01*
X148544010Y-85158411D01*
X148706525Y-85401632D01*
X148913368Y-85608475D01*
X149156589Y-85770990D01*
X149426842Y-85882932D01*
X149713740Y-85940000D01*
X150006260Y-85940000D01*
X150293158Y-85882932D01*
X150563411Y-85770990D01*
X150806632Y-85608475D01*
X151013475Y-85401632D01*
X151175990Y-85158411D01*
X151287932Y-84888158D01*
X151345000Y-84601260D01*
X151345000Y-84308740D01*
X151287932Y-84021842D01*
X151175990Y-83751589D01*
X151013475Y-83508368D01*
X150806632Y-83301525D01*
X150624466Y-83179805D01*
X150741355Y-83110178D01*
X150957588Y-82915269D01*
X151131641Y-82681920D01*
X151256825Y-82419099D01*
X151301476Y-82271890D01*
X151180155Y-82042000D01*
X149987000Y-82042000D01*
X149987000Y-82062000D01*
X149733000Y-82062000D01*
X149733000Y-82042000D01*
X148539845Y-82042000D01*
X148418524Y-82271890D01*
X148463175Y-82419099D01*
X148588359Y-82681920D01*
X148762412Y-82915269D01*
X148978645Y-83110178D01*
X149095534Y-83179805D01*
X148913368Y-83301525D01*
X148706525Y-83508368D01*
X148544010Y-83751589D01*
X148432068Y-84021842D01*
X148375000Y-84308740D01*
X124485000Y-84308740D01*
X124485000Y-81778589D01*
X126555000Y-81778589D01*
X126555000Y-82051411D01*
X126608225Y-82318989D01*
X126712629Y-82571043D01*
X126864201Y-82797886D01*
X127057114Y-82990799D01*
X127283957Y-83142371D01*
X127536011Y-83246775D01*
X127803589Y-83300000D01*
X128076411Y-83300000D01*
X128343989Y-83246775D01*
X128596043Y-83142371D01*
X128822886Y-82990799D01*
X129015799Y-82797886D01*
X129167371Y-82571043D01*
X129271775Y-82318989D01*
X129325000Y-82051411D01*
X129325000Y-81778589D01*
X133555000Y-81778589D01*
X133555000Y-82051411D01*
X133608225Y-82318989D01*
X133712629Y-82571043D01*
X133864201Y-82797886D01*
X134057114Y-82990799D01*
X134283957Y-83142371D01*
X134536011Y-83246775D01*
X134803589Y-83300000D01*
X135076411Y-83300000D01*
X135343989Y-83246775D01*
X135596043Y-83142371D01*
X135822886Y-82990799D01*
X136015799Y-82797886D01*
X136167371Y-82571043D01*
X136271775Y-82318989D01*
X136325000Y-82051411D01*
X136325000Y-81778589D01*
X136271775Y-81511011D01*
X136167371Y-81258957D01*
X136015799Y-81032114D01*
X135822886Y-80839201D01*
X135596043Y-80687629D01*
X135343989Y-80583225D01*
X135076411Y-80530000D01*
X134803589Y-80530000D01*
X134536011Y-80583225D01*
X134283957Y-80687629D01*
X134057114Y-80839201D01*
X133864201Y-81032114D01*
X133712629Y-81258957D01*
X133608225Y-81511011D01*
X133555000Y-81778589D01*
X129325000Y-81778589D01*
X129271775Y-81511011D01*
X129167371Y-81258957D01*
X129015799Y-81032114D01*
X128822886Y-80839201D01*
X128596043Y-80687629D01*
X128343989Y-80583225D01*
X128076411Y-80530000D01*
X127803589Y-80530000D01*
X127536011Y-80583225D01*
X127283957Y-80687629D01*
X127057114Y-80839201D01*
X126864201Y-81032114D01*
X126712629Y-81258957D01*
X126608225Y-81511011D01*
X126555000Y-81778589D01*
X124485000Y-81778589D01*
X124485000Y-78525000D01*
X148371928Y-78525000D01*
X148371928Y-80225000D01*
X148384188Y-80349482D01*
X148420498Y-80469180D01*
X148479463Y-80579494D01*
X148558815Y-80676185D01*
X148655506Y-80755537D01*
X148765820Y-80814502D01*
X148846466Y-80838966D01*
X148762412Y-80914731D01*
X148588359Y-81148080D01*
X148463175Y-81410901D01*
X148418524Y-81558110D01*
X148539845Y-81788000D01*
X149733000Y-81788000D01*
X149733000Y-81768000D01*
X149987000Y-81768000D01*
X149987000Y-81788000D01*
X151180155Y-81788000D01*
X151301476Y-81558110D01*
X151256825Y-81410901D01*
X151131641Y-81148080D01*
X150957588Y-80914731D01*
X150873534Y-80838966D01*
X150954180Y-80814502D01*
X151064494Y-80755537D01*
X151161185Y-80676185D01*
X151240537Y-80579494D01*
X151299502Y-80469180D01*
X151335812Y-80349482D01*
X151348072Y-80225000D01*
X151348072Y-78525000D01*
X151335812Y-78400518D01*
X151299502Y-78280820D01*
X151240537Y-78170506D01*
X151161185Y-78073815D01*
X151064494Y-77994463D01*
X150954180Y-77935498D01*
X150834482Y-77899188D01*
X150710000Y-77886928D01*
X149010000Y-77886928D01*
X148885518Y-77899188D01*
X148765820Y-77935498D01*
X148655506Y-77994463D01*
X148558815Y-78073815D01*
X148479463Y-78170506D01*
X148420498Y-78280820D01*
X148384188Y-78400518D01*
X148371928Y-78525000D01*
X124485000Y-78525000D01*
X124485000Y-76232275D01*
X124485666Y-76225487D01*
X124490301Y-76225000D01*
X151732725Y-76225000D01*
X151739513Y-76225666D01*
G37*
%TD.AperFunction*%
%TD*%
M02*
