%TF.GenerationSoftware,KiCad,Pcbnew,(5.1.9)-1*%
%TF.CreationDate,2022-01-05T12:10:33+01:00*%
%TF.ProjectId,WLED_AudioJackAdapter,574c4544-5f41-4756-9469-6f4a61636b41,rev?*%
%TF.SameCoordinates,Original*%
%TF.FileFunction,Copper,L1,Top*%
%TF.FilePolarity,Positive*%
%FSLAX46Y46*%
G04 Gerber Fmt 4.6, Leading zero omitted, Abs format (unit mm)*
G04 Created by KiCad (PCBNEW (5.1.9)-1) date 2022-01-05 12:10:33*
%MOMM*%
%LPD*%
G01*
G04 APERTURE LIST*
%TA.AperFunction,SMDPad,CuDef*%
%ADD10R,1.200000X2.500000*%
%TD*%
%TA.AperFunction,ComponentPad*%
%ADD11O,1.700000X1.700000*%
%TD*%
%TA.AperFunction,ComponentPad*%
%ADD12R,1.700000X1.700000*%
%TD*%
%TA.AperFunction,Conductor*%
%ADD13C,0.250000*%
%TD*%
%TA.AperFunction,Conductor*%
%ADD14C,0.254000*%
%TD*%
%TA.AperFunction,Conductor*%
%ADD15C,0.100000*%
%TD*%
G04 APERTURE END LIST*
D10*
%TO.P,J1,R2*%
%TO.N,N/C*%
X129540000Y-78665000D03*
%TO.P,J1,R1*%
%TO.N,Net-(C1-Pad2)*%
X132540000Y-78665000D03*
%TO.P,J1,T*%
%TO.N,Net-(C2-Pad2)*%
X136540000Y-78665000D03*
%TO.P,J1,S*%
%TO.N,GND*%
X137640000Y-85165000D03*
%TD*%
%TO.P,R4,2*%
%TO.N,ADC*%
%TA.AperFunction,SMDPad,CuDef*%
G36*
G01*
X146500001Y-83785000D02*
X145599999Y-83785000D01*
G75*
G02*
X145350000Y-83535001I0J249999D01*
G01*
X145350000Y-82834999D01*
G75*
G02*
X145599999Y-82585000I249999J0D01*
G01*
X146500001Y-82585000D01*
G75*
G02*
X146750000Y-82834999I0J-249999D01*
G01*
X146750000Y-83535001D01*
G75*
G02*
X146500001Y-83785000I-249999J0D01*
G01*
G37*
%TD.AperFunction*%
%TO.P,R4,1*%
%TO.N,+3V3*%
%TA.AperFunction,SMDPad,CuDef*%
G36*
G01*
X146500001Y-85785000D02*
X145599999Y-85785000D01*
G75*
G02*
X145350000Y-85535001I0J249999D01*
G01*
X145350000Y-84834999D01*
G75*
G02*
X145599999Y-84585000I249999J0D01*
G01*
X146500001Y-84585000D01*
G75*
G02*
X146750000Y-84834999I0J-249999D01*
G01*
X146750000Y-85535001D01*
G75*
G02*
X146500001Y-85785000I-249999J0D01*
G01*
G37*
%TD.AperFunction*%
%TD*%
%TO.P,R3,2*%
%TO.N,GND*%
%TA.AperFunction,SMDPad,CuDef*%
G36*
G01*
X146500001Y-79245000D02*
X145599999Y-79245000D01*
G75*
G02*
X145350000Y-78995001I0J249999D01*
G01*
X145350000Y-78294999D01*
G75*
G02*
X145599999Y-78045000I249999J0D01*
G01*
X146500001Y-78045000D01*
G75*
G02*
X146750000Y-78294999I0J-249999D01*
G01*
X146750000Y-78995001D01*
G75*
G02*
X146500001Y-79245000I-249999J0D01*
G01*
G37*
%TD.AperFunction*%
%TO.P,R3,1*%
%TO.N,ADC*%
%TA.AperFunction,SMDPad,CuDef*%
G36*
G01*
X146500001Y-81245000D02*
X145599999Y-81245000D01*
G75*
G02*
X145350000Y-80995001I0J249999D01*
G01*
X145350000Y-80294999D01*
G75*
G02*
X145599999Y-80045000I249999J0D01*
G01*
X146500001Y-80045000D01*
G75*
G02*
X146750000Y-80294999I0J-249999D01*
G01*
X146750000Y-80995001D01*
G75*
G02*
X146500001Y-81245000I-249999J0D01*
G01*
G37*
%TD.AperFunction*%
%TD*%
%TO.P,R2,2*%
%TO.N,Net-(C2-Pad2)*%
%TA.AperFunction,SMDPad,CuDef*%
G36*
G01*
X142205000Y-85274999D02*
X142205000Y-86175001D01*
G75*
G02*
X141955001Y-86425000I-249999J0D01*
G01*
X141254999Y-86425000D01*
G75*
G02*
X141005000Y-86175001I0J249999D01*
G01*
X141005000Y-85274999D01*
G75*
G02*
X141254999Y-85025000I249999J0D01*
G01*
X141955001Y-85025000D01*
G75*
G02*
X142205000Y-85274999I0J-249999D01*
G01*
G37*
%TD.AperFunction*%
%TO.P,R2,1*%
%TO.N,GND*%
%TA.AperFunction,SMDPad,CuDef*%
G36*
G01*
X144205000Y-85274999D02*
X144205000Y-86175001D01*
G75*
G02*
X143955001Y-86425000I-249999J0D01*
G01*
X143254999Y-86425000D01*
G75*
G02*
X143005000Y-86175001I0J249999D01*
G01*
X143005000Y-85274999D01*
G75*
G02*
X143254999Y-85025000I249999J0D01*
G01*
X143955001Y-85025000D01*
G75*
G02*
X144205000Y-85274999I0J-249999D01*
G01*
G37*
%TD.AperFunction*%
%TD*%
%TO.P,R1,2*%
%TO.N,Net-(C1-Pad2)*%
%TA.AperFunction,SMDPad,CuDef*%
G36*
G01*
X142205000Y-77654999D02*
X142205000Y-78555001D01*
G75*
G02*
X141955001Y-78805000I-249999J0D01*
G01*
X141254999Y-78805000D01*
G75*
G02*
X141005000Y-78555001I0J249999D01*
G01*
X141005000Y-77654999D01*
G75*
G02*
X141254999Y-77405000I249999J0D01*
G01*
X141955001Y-77405000D01*
G75*
G02*
X142205000Y-77654999I0J-249999D01*
G01*
G37*
%TD.AperFunction*%
%TO.P,R1,1*%
%TO.N,GND*%
%TA.AperFunction,SMDPad,CuDef*%
G36*
G01*
X144205000Y-77654999D02*
X144205000Y-78555001D01*
G75*
G02*
X143955001Y-78805000I-249999J0D01*
G01*
X143254999Y-78805000D01*
G75*
G02*
X143005000Y-78555001I0J249999D01*
G01*
X143005000Y-77654999D01*
G75*
G02*
X143254999Y-77405000I249999J0D01*
G01*
X143955001Y-77405000D01*
G75*
G02*
X144205000Y-77654999I0J-249999D01*
G01*
G37*
%TD.AperFunction*%
%TD*%
D11*
%TO.P,J2,3*%
%TO.N,+3V3*%
X149860000Y-84455000D03*
%TO.P,J2,2*%
%TO.N,GND*%
X149860000Y-81915000D03*
D12*
%TO.P,J2,1*%
%TO.N,ADC*%
X149860000Y-79375000D03*
%TD*%
%TO.P,C2,2*%
%TO.N,Net-(C2-Pad2)*%
%TA.AperFunction,SMDPad,CuDef*%
G36*
G01*
X142192500Y-82710000D02*
X142192500Y-83660000D01*
G75*
G02*
X141942500Y-83910000I-250000J0D01*
G01*
X141267500Y-83910000D01*
G75*
G02*
X141017500Y-83660000I0J250000D01*
G01*
X141017500Y-82710000D01*
G75*
G02*
X141267500Y-82460000I250000J0D01*
G01*
X141942500Y-82460000D01*
G75*
G02*
X142192500Y-82710000I0J-250000D01*
G01*
G37*
%TD.AperFunction*%
%TO.P,C2,1*%
%TO.N,ADC*%
%TA.AperFunction,SMDPad,CuDef*%
G36*
G01*
X144267500Y-82710000D02*
X144267500Y-83660000D01*
G75*
G02*
X144017500Y-83910000I-250000J0D01*
G01*
X143342500Y-83910000D01*
G75*
G02*
X143092500Y-83660000I0J250000D01*
G01*
X143092500Y-82710000D01*
G75*
G02*
X143342500Y-82460000I250000J0D01*
G01*
X144017500Y-82460000D01*
G75*
G02*
X144267500Y-82710000I0J-250000D01*
G01*
G37*
%TD.AperFunction*%
%TD*%
%TO.P,C1,2*%
%TO.N,Net-(C1-Pad2)*%
%TA.AperFunction,SMDPad,CuDef*%
G36*
G01*
X142192500Y-80170000D02*
X142192500Y-81120000D01*
G75*
G02*
X141942500Y-81370000I-250000J0D01*
G01*
X141267500Y-81370000D01*
G75*
G02*
X141017500Y-81120000I0J250000D01*
G01*
X141017500Y-80170000D01*
G75*
G02*
X141267500Y-79920000I250000J0D01*
G01*
X141942500Y-79920000D01*
G75*
G02*
X142192500Y-80170000I0J-250000D01*
G01*
G37*
%TD.AperFunction*%
%TO.P,C1,1*%
%TO.N,ADC*%
%TA.AperFunction,SMDPad,CuDef*%
G36*
G01*
X144267500Y-80170000D02*
X144267500Y-81120000D01*
G75*
G02*
X144017500Y-81370000I-250000J0D01*
G01*
X143342500Y-81370000D01*
G75*
G02*
X143092500Y-81120000I0J250000D01*
G01*
X143092500Y-80170000D01*
G75*
G02*
X143342500Y-79920000I250000J0D01*
G01*
X144017500Y-79920000D01*
G75*
G02*
X144267500Y-80170000I0J-250000D01*
G01*
G37*
%TD.AperFunction*%
%TD*%
D13*
%TO.N,Net-(C1-Pad2)*%
X141605000Y-78105000D02*
X141605000Y-80645000D01*
X140589999Y-77089999D02*
X141605000Y-78105000D01*
X134115001Y-77089999D02*
X140589999Y-77089999D01*
X132540000Y-78665000D02*
X134115001Y-77089999D01*
%TO.N,ADC*%
X148590000Y-80645000D02*
X149860000Y-79375000D01*
X146050000Y-80645000D02*
X148590000Y-80645000D01*
X143680000Y-80645000D02*
X146050000Y-80645000D01*
X143680000Y-83185000D02*
X143680000Y-80645000D01*
X146050000Y-83185000D02*
X143680000Y-83185000D01*
%TO.N,Net-(C2-Pad2)*%
X141605000Y-83185000D02*
X141605000Y-85725000D01*
X137085000Y-78665000D02*
X141605000Y-83185000D01*
X136540000Y-78665000D02*
X137085000Y-78665000D01*
%TO.N,+3V3*%
X149765000Y-85185000D02*
X149860000Y-85090000D01*
X149130000Y-85185000D02*
X149860000Y-84455000D01*
X146050000Y-85185000D02*
X149130000Y-85185000D01*
%TD*%
D14*
%TO.N,GND*%
X151739513Y-76225666D02*
X151740000Y-76230301D01*
X151740001Y-87597715D01*
X151739335Y-87604513D01*
X151734699Y-87605000D01*
X124492275Y-87605000D01*
X124485487Y-87604335D01*
X124485000Y-87599699D01*
X124485000Y-86415000D01*
X136401928Y-86415000D01*
X136414188Y-86539482D01*
X136450498Y-86659180D01*
X136509463Y-86769494D01*
X136588815Y-86866185D01*
X136685506Y-86945537D01*
X136795820Y-87004502D01*
X136915518Y-87040812D01*
X137040000Y-87053072D01*
X137354250Y-87050000D01*
X137513000Y-86891250D01*
X137513000Y-85292000D01*
X137767000Y-85292000D01*
X137767000Y-86891250D01*
X137925750Y-87050000D01*
X138240000Y-87053072D01*
X138364482Y-87040812D01*
X138484180Y-87004502D01*
X138594494Y-86945537D01*
X138691185Y-86866185D01*
X138770537Y-86769494D01*
X138829502Y-86659180D01*
X138865812Y-86539482D01*
X138878072Y-86415000D01*
X138875000Y-85450750D01*
X138716250Y-85292000D01*
X137767000Y-85292000D01*
X137513000Y-85292000D01*
X136563750Y-85292000D01*
X136405000Y-85450750D01*
X136401928Y-86415000D01*
X124485000Y-86415000D01*
X124485000Y-83915000D01*
X136401928Y-83915000D01*
X136405000Y-84879250D01*
X136563750Y-85038000D01*
X137513000Y-85038000D01*
X137513000Y-83438750D01*
X137767000Y-83438750D01*
X137767000Y-85038000D01*
X138716250Y-85038000D01*
X138875000Y-84879250D01*
X138878072Y-83915000D01*
X138865812Y-83790518D01*
X138829502Y-83670820D01*
X138770537Y-83560506D01*
X138691185Y-83463815D01*
X138594494Y-83384463D01*
X138484180Y-83325498D01*
X138364482Y-83289188D01*
X138240000Y-83276928D01*
X137925750Y-83280000D01*
X137767000Y-83438750D01*
X137513000Y-83438750D01*
X137354250Y-83280000D01*
X137040000Y-83276928D01*
X136915518Y-83289188D01*
X136795820Y-83325498D01*
X136685506Y-83384463D01*
X136588815Y-83463815D01*
X136509463Y-83560506D01*
X136450498Y-83670820D01*
X136414188Y-83790518D01*
X136401928Y-83915000D01*
X124485000Y-83915000D01*
X124485000Y-81778589D01*
X126555000Y-81778589D01*
X126555000Y-82051411D01*
X126608225Y-82318989D01*
X126712629Y-82571043D01*
X126864201Y-82797886D01*
X127057114Y-82990799D01*
X127283957Y-83142371D01*
X127536011Y-83246775D01*
X127803589Y-83300000D01*
X128076411Y-83300000D01*
X128343989Y-83246775D01*
X128596043Y-83142371D01*
X128822886Y-82990799D01*
X129015799Y-82797886D01*
X129167371Y-82571043D01*
X129271775Y-82318989D01*
X129325000Y-82051411D01*
X129325000Y-81778589D01*
X133555000Y-81778589D01*
X133555000Y-82051411D01*
X133608225Y-82318989D01*
X133712629Y-82571043D01*
X133864201Y-82797886D01*
X134057114Y-82990799D01*
X134283957Y-83142371D01*
X134536011Y-83246775D01*
X134803589Y-83300000D01*
X135076411Y-83300000D01*
X135343989Y-83246775D01*
X135596043Y-83142371D01*
X135822886Y-82990799D01*
X136015799Y-82797886D01*
X136167371Y-82571043D01*
X136271775Y-82318989D01*
X136325000Y-82051411D01*
X136325000Y-81778589D01*
X136271775Y-81511011D01*
X136167371Y-81258957D01*
X136015799Y-81032114D01*
X135822886Y-80839201D01*
X135596043Y-80687629D01*
X135343989Y-80583225D01*
X135076411Y-80530000D01*
X134803589Y-80530000D01*
X134536011Y-80583225D01*
X134283957Y-80687629D01*
X134057114Y-80839201D01*
X133864201Y-81032114D01*
X133712629Y-81258957D01*
X133608225Y-81511011D01*
X133555000Y-81778589D01*
X129325000Y-81778589D01*
X129271775Y-81511011D01*
X129167371Y-81258957D01*
X129015799Y-81032114D01*
X128822886Y-80839201D01*
X128596043Y-80687629D01*
X128343989Y-80583225D01*
X128076411Y-80530000D01*
X127803589Y-80530000D01*
X127536011Y-80583225D01*
X127283957Y-80687629D01*
X127057114Y-80839201D01*
X126864201Y-81032114D01*
X126712629Y-81258957D01*
X126608225Y-81511011D01*
X126555000Y-81778589D01*
X124485000Y-81778589D01*
X124485000Y-77415000D01*
X128301928Y-77415000D01*
X128301928Y-79915000D01*
X128314188Y-80039482D01*
X128350498Y-80159180D01*
X128409463Y-80269494D01*
X128488815Y-80366185D01*
X128585506Y-80445537D01*
X128695820Y-80504502D01*
X128815518Y-80540812D01*
X128940000Y-80553072D01*
X130140000Y-80553072D01*
X130264482Y-80540812D01*
X130384180Y-80504502D01*
X130494494Y-80445537D01*
X130591185Y-80366185D01*
X130670537Y-80269494D01*
X130729502Y-80159180D01*
X130765812Y-80039482D01*
X130778072Y-79915000D01*
X130778072Y-77415000D01*
X131301928Y-77415000D01*
X131301928Y-79915000D01*
X131314188Y-80039482D01*
X131350498Y-80159180D01*
X131409463Y-80269494D01*
X131488815Y-80366185D01*
X131585506Y-80445537D01*
X131695820Y-80504502D01*
X131815518Y-80540812D01*
X131940000Y-80553072D01*
X133140000Y-80553072D01*
X133264482Y-80540812D01*
X133384180Y-80504502D01*
X133494494Y-80445537D01*
X133591185Y-80366185D01*
X133670537Y-80269494D01*
X133729502Y-80159180D01*
X133765812Y-80039482D01*
X133778072Y-79915000D01*
X133778072Y-78501729D01*
X134429803Y-77849999D01*
X135301928Y-77849999D01*
X135301928Y-79915000D01*
X135314188Y-80039482D01*
X135350498Y-80159180D01*
X135409463Y-80269494D01*
X135488815Y-80366185D01*
X135585506Y-80445537D01*
X135695820Y-80504502D01*
X135815518Y-80540812D01*
X135940000Y-80553072D01*
X137140000Y-80553072D01*
X137264482Y-80540812D01*
X137384180Y-80504502D01*
X137494494Y-80445537D01*
X137591185Y-80366185D01*
X137645365Y-80300166D01*
X140379428Y-83034230D01*
X140379428Y-83660000D01*
X140396492Y-83833254D01*
X140447028Y-83999850D01*
X140529095Y-84153386D01*
X140639538Y-84287962D01*
X140774114Y-84398405D01*
X140845000Y-84436295D01*
X140845001Y-84492023D01*
X140761613Y-84536595D01*
X140627038Y-84647038D01*
X140516595Y-84781613D01*
X140434528Y-84935149D01*
X140383992Y-85101745D01*
X140366928Y-85274999D01*
X140366928Y-86175001D01*
X140383992Y-86348255D01*
X140434528Y-86514851D01*
X140516595Y-86668387D01*
X140627038Y-86802962D01*
X140761613Y-86913405D01*
X140915149Y-86995472D01*
X141081745Y-87046008D01*
X141254999Y-87063072D01*
X141955001Y-87063072D01*
X142128255Y-87046008D01*
X142294851Y-86995472D01*
X142448387Y-86913405D01*
X142529637Y-86846724D01*
X142553815Y-86876185D01*
X142650506Y-86955537D01*
X142760820Y-87014502D01*
X142880518Y-87050812D01*
X143005000Y-87063072D01*
X143319250Y-87060000D01*
X143478000Y-86901250D01*
X143478000Y-85852000D01*
X143458000Y-85852000D01*
X143458000Y-85598000D01*
X143478000Y-85598000D01*
X143478000Y-85578000D01*
X143732000Y-85578000D01*
X143732000Y-85598000D01*
X143752000Y-85598000D01*
X143752000Y-85852000D01*
X143732000Y-85852000D01*
X143732000Y-86901250D01*
X143890750Y-87060000D01*
X144205000Y-87063072D01*
X144329482Y-87050812D01*
X144449180Y-87014502D01*
X144559494Y-86955537D01*
X144656185Y-86876185D01*
X144735537Y-86779494D01*
X144794502Y-86669180D01*
X144830812Y-86549482D01*
X144843072Y-86425000D01*
X144840000Y-86010750D01*
X144681252Y-85852002D01*
X144772597Y-85852002D01*
X144779528Y-85874851D01*
X144861595Y-86028387D01*
X144972038Y-86162962D01*
X145106613Y-86273405D01*
X145260149Y-86355472D01*
X145426745Y-86406008D01*
X145599999Y-86423072D01*
X146500001Y-86423072D01*
X146673255Y-86406008D01*
X146839851Y-86355472D01*
X146993387Y-86273405D01*
X147127962Y-86162962D01*
X147238405Y-86028387D01*
X147282976Y-85945000D01*
X149092678Y-85945000D01*
X149130000Y-85948676D01*
X149167322Y-85945000D01*
X149167333Y-85945000D01*
X149278986Y-85934003D01*
X149422247Y-85890546D01*
X149433875Y-85884331D01*
X149487296Y-85894957D01*
X149616015Y-85934002D01*
X149765000Y-85948676D01*
X149853087Y-85940000D01*
X150006260Y-85940000D01*
X150293158Y-85882932D01*
X150563411Y-85770990D01*
X150806632Y-85608475D01*
X151013475Y-85401632D01*
X151175990Y-85158411D01*
X151287932Y-84888158D01*
X151345000Y-84601260D01*
X151345000Y-84308740D01*
X151287932Y-84021842D01*
X151175990Y-83751589D01*
X151013475Y-83508368D01*
X150806632Y-83301525D01*
X150624466Y-83179805D01*
X150741355Y-83110178D01*
X150957588Y-82915269D01*
X151131641Y-82681920D01*
X151256825Y-82419099D01*
X151301476Y-82271890D01*
X151180155Y-82042000D01*
X149987000Y-82042000D01*
X149987000Y-82062000D01*
X149733000Y-82062000D01*
X149733000Y-82042000D01*
X148539845Y-82042000D01*
X148418524Y-82271890D01*
X148463175Y-82419099D01*
X148588359Y-82681920D01*
X148762412Y-82915269D01*
X148978645Y-83110178D01*
X149095534Y-83179805D01*
X148913368Y-83301525D01*
X148706525Y-83508368D01*
X148544010Y-83751589D01*
X148432068Y-84021842D01*
X148375000Y-84308740D01*
X148375000Y-84425000D01*
X147282976Y-84425000D01*
X147238405Y-84341613D01*
X147127962Y-84207038D01*
X147101109Y-84185000D01*
X147127962Y-84162962D01*
X147238405Y-84028387D01*
X147320472Y-83874851D01*
X147371008Y-83708255D01*
X147388072Y-83535001D01*
X147388072Y-82834999D01*
X147371008Y-82661745D01*
X147320472Y-82495149D01*
X147238405Y-82341613D01*
X147127962Y-82207038D01*
X146993387Y-82096595D01*
X146839851Y-82014528D01*
X146673255Y-81963992D01*
X146500001Y-81946928D01*
X145599999Y-81946928D01*
X145426745Y-81963992D01*
X145260149Y-82014528D01*
X145106613Y-82096595D01*
X144972038Y-82207038D01*
X144861595Y-82341613D01*
X144841002Y-82380139D01*
X144837972Y-82370150D01*
X144755905Y-82216614D01*
X144645462Y-82082038D01*
X144510886Y-81971595D01*
X144440000Y-81933706D01*
X144440000Y-81896294D01*
X144510886Y-81858405D01*
X144645462Y-81747962D01*
X144755905Y-81613386D01*
X144837972Y-81459850D01*
X144841002Y-81449861D01*
X144861595Y-81488387D01*
X144972038Y-81622962D01*
X145106613Y-81733405D01*
X145260149Y-81815472D01*
X145426745Y-81866008D01*
X145599999Y-81883072D01*
X146500001Y-81883072D01*
X146673255Y-81866008D01*
X146839851Y-81815472D01*
X146993387Y-81733405D01*
X147127962Y-81622962D01*
X147238405Y-81488387D01*
X147282976Y-81405000D01*
X148465986Y-81405000D01*
X148463175Y-81410901D01*
X148418524Y-81558110D01*
X148539845Y-81788000D01*
X149733000Y-81788000D01*
X149733000Y-81768000D01*
X149987000Y-81768000D01*
X149987000Y-81788000D01*
X151180155Y-81788000D01*
X151301476Y-81558110D01*
X151256825Y-81410901D01*
X151131641Y-81148080D01*
X150957588Y-80914731D01*
X150873534Y-80838966D01*
X150954180Y-80814502D01*
X151064494Y-80755537D01*
X151161185Y-80676185D01*
X151240537Y-80579494D01*
X151299502Y-80469180D01*
X151335812Y-80349482D01*
X151348072Y-80225000D01*
X151348072Y-78525000D01*
X151335812Y-78400518D01*
X151299502Y-78280820D01*
X151240537Y-78170506D01*
X151161185Y-78073815D01*
X151064494Y-77994463D01*
X150954180Y-77935498D01*
X150834482Y-77899188D01*
X150710000Y-77886928D01*
X149010000Y-77886928D01*
X148885518Y-77899188D01*
X148765820Y-77935498D01*
X148655506Y-77994463D01*
X148558815Y-78073815D01*
X148479463Y-78170506D01*
X148420498Y-78280820D01*
X148384188Y-78400518D01*
X148371928Y-78525000D01*
X148371928Y-79788271D01*
X148275199Y-79885000D01*
X147282976Y-79885000D01*
X147238405Y-79801613D01*
X147171724Y-79720363D01*
X147201185Y-79696185D01*
X147280537Y-79599494D01*
X147339502Y-79489180D01*
X147375812Y-79369482D01*
X147388072Y-79245000D01*
X147385000Y-78930750D01*
X147226250Y-78772000D01*
X146177000Y-78772000D01*
X146177000Y-78792000D01*
X145923000Y-78792000D01*
X145923000Y-78772000D01*
X145903000Y-78772000D01*
X145903000Y-78518000D01*
X145923000Y-78518000D01*
X145923000Y-77568750D01*
X146177000Y-77568750D01*
X146177000Y-78518000D01*
X147226250Y-78518000D01*
X147385000Y-78359250D01*
X147388072Y-78045000D01*
X147375812Y-77920518D01*
X147339502Y-77800820D01*
X147280537Y-77690506D01*
X147201185Y-77593815D01*
X147104494Y-77514463D01*
X146994180Y-77455498D01*
X146874482Y-77419188D01*
X146750000Y-77406928D01*
X146335750Y-77410000D01*
X146177000Y-77568750D01*
X145923000Y-77568750D01*
X145764250Y-77410000D01*
X145350000Y-77406928D01*
X145225518Y-77419188D01*
X145105820Y-77455498D01*
X144995506Y-77514463D01*
X144898815Y-77593815D01*
X144841151Y-77664079D01*
X144843072Y-77405000D01*
X144830812Y-77280518D01*
X144794502Y-77160820D01*
X144735537Y-77050506D01*
X144656185Y-76953815D01*
X144559494Y-76874463D01*
X144449180Y-76815498D01*
X144329482Y-76779188D01*
X144205000Y-76766928D01*
X143890750Y-76770000D01*
X143732000Y-76928750D01*
X143732000Y-77978000D01*
X143752000Y-77978000D01*
X143752000Y-78232000D01*
X143732000Y-78232000D01*
X143732000Y-78252000D01*
X143478000Y-78252000D01*
X143478000Y-78232000D01*
X143458000Y-78232000D01*
X143458000Y-77978000D01*
X143478000Y-77978000D01*
X143478000Y-76928750D01*
X143319250Y-76770000D01*
X143005000Y-76766928D01*
X142880518Y-76779188D01*
X142760820Y-76815498D01*
X142650506Y-76874463D01*
X142553815Y-76953815D01*
X142529637Y-76983276D01*
X142448387Y-76916595D01*
X142294851Y-76834528D01*
X142128255Y-76783992D01*
X141955001Y-76766928D01*
X141341729Y-76766928D01*
X141153803Y-76579001D01*
X141130000Y-76549998D01*
X141014275Y-76455025D01*
X140882246Y-76384453D01*
X140738985Y-76340996D01*
X140627332Y-76329999D01*
X140627321Y-76329999D01*
X140589999Y-76326323D01*
X140552677Y-76329999D01*
X134152326Y-76329999D01*
X134115001Y-76326323D01*
X134077676Y-76329999D01*
X134077668Y-76329999D01*
X133966015Y-76340996D01*
X133822754Y-76384453D01*
X133690725Y-76455025D01*
X133575000Y-76549998D01*
X133551202Y-76578996D01*
X133323199Y-76807000D01*
X133264482Y-76789188D01*
X133140000Y-76776928D01*
X131940000Y-76776928D01*
X131815518Y-76789188D01*
X131695820Y-76825498D01*
X131585506Y-76884463D01*
X131488815Y-76963815D01*
X131409463Y-77060506D01*
X131350498Y-77170820D01*
X131314188Y-77290518D01*
X131301928Y-77415000D01*
X130778072Y-77415000D01*
X130765812Y-77290518D01*
X130729502Y-77170820D01*
X130670537Y-77060506D01*
X130591185Y-76963815D01*
X130494494Y-76884463D01*
X130384180Y-76825498D01*
X130264482Y-76789188D01*
X130140000Y-76776928D01*
X128940000Y-76776928D01*
X128815518Y-76789188D01*
X128695820Y-76825498D01*
X128585506Y-76884463D01*
X128488815Y-76963815D01*
X128409463Y-77060506D01*
X128350498Y-77170820D01*
X128314188Y-77290518D01*
X128301928Y-77415000D01*
X124485000Y-77415000D01*
X124485000Y-76232275D01*
X124485666Y-76225487D01*
X124490301Y-76225000D01*
X151732725Y-76225000D01*
X151739513Y-76225666D01*
%TA.AperFunction,Conductor*%
D15*
G36*
X151739513Y-76225666D02*
G01*
X151740000Y-76230301D01*
X151740001Y-87597715D01*
X151739335Y-87604513D01*
X151734699Y-87605000D01*
X124492275Y-87605000D01*
X124485487Y-87604335D01*
X124485000Y-87599699D01*
X124485000Y-86415000D01*
X136401928Y-86415000D01*
X136414188Y-86539482D01*
X136450498Y-86659180D01*
X136509463Y-86769494D01*
X136588815Y-86866185D01*
X136685506Y-86945537D01*
X136795820Y-87004502D01*
X136915518Y-87040812D01*
X137040000Y-87053072D01*
X137354250Y-87050000D01*
X137513000Y-86891250D01*
X137513000Y-85292000D01*
X137767000Y-85292000D01*
X137767000Y-86891250D01*
X137925750Y-87050000D01*
X138240000Y-87053072D01*
X138364482Y-87040812D01*
X138484180Y-87004502D01*
X138594494Y-86945537D01*
X138691185Y-86866185D01*
X138770537Y-86769494D01*
X138829502Y-86659180D01*
X138865812Y-86539482D01*
X138878072Y-86415000D01*
X138875000Y-85450750D01*
X138716250Y-85292000D01*
X137767000Y-85292000D01*
X137513000Y-85292000D01*
X136563750Y-85292000D01*
X136405000Y-85450750D01*
X136401928Y-86415000D01*
X124485000Y-86415000D01*
X124485000Y-83915000D01*
X136401928Y-83915000D01*
X136405000Y-84879250D01*
X136563750Y-85038000D01*
X137513000Y-85038000D01*
X137513000Y-83438750D01*
X137767000Y-83438750D01*
X137767000Y-85038000D01*
X138716250Y-85038000D01*
X138875000Y-84879250D01*
X138878072Y-83915000D01*
X138865812Y-83790518D01*
X138829502Y-83670820D01*
X138770537Y-83560506D01*
X138691185Y-83463815D01*
X138594494Y-83384463D01*
X138484180Y-83325498D01*
X138364482Y-83289188D01*
X138240000Y-83276928D01*
X137925750Y-83280000D01*
X137767000Y-83438750D01*
X137513000Y-83438750D01*
X137354250Y-83280000D01*
X137040000Y-83276928D01*
X136915518Y-83289188D01*
X136795820Y-83325498D01*
X136685506Y-83384463D01*
X136588815Y-83463815D01*
X136509463Y-83560506D01*
X136450498Y-83670820D01*
X136414188Y-83790518D01*
X136401928Y-83915000D01*
X124485000Y-83915000D01*
X124485000Y-81778589D01*
X126555000Y-81778589D01*
X126555000Y-82051411D01*
X126608225Y-82318989D01*
X126712629Y-82571043D01*
X126864201Y-82797886D01*
X127057114Y-82990799D01*
X127283957Y-83142371D01*
X127536011Y-83246775D01*
X127803589Y-83300000D01*
X128076411Y-83300000D01*
X128343989Y-83246775D01*
X128596043Y-83142371D01*
X128822886Y-82990799D01*
X129015799Y-82797886D01*
X129167371Y-82571043D01*
X129271775Y-82318989D01*
X129325000Y-82051411D01*
X129325000Y-81778589D01*
X133555000Y-81778589D01*
X133555000Y-82051411D01*
X133608225Y-82318989D01*
X133712629Y-82571043D01*
X133864201Y-82797886D01*
X134057114Y-82990799D01*
X134283957Y-83142371D01*
X134536011Y-83246775D01*
X134803589Y-83300000D01*
X135076411Y-83300000D01*
X135343989Y-83246775D01*
X135596043Y-83142371D01*
X135822886Y-82990799D01*
X136015799Y-82797886D01*
X136167371Y-82571043D01*
X136271775Y-82318989D01*
X136325000Y-82051411D01*
X136325000Y-81778589D01*
X136271775Y-81511011D01*
X136167371Y-81258957D01*
X136015799Y-81032114D01*
X135822886Y-80839201D01*
X135596043Y-80687629D01*
X135343989Y-80583225D01*
X135076411Y-80530000D01*
X134803589Y-80530000D01*
X134536011Y-80583225D01*
X134283957Y-80687629D01*
X134057114Y-80839201D01*
X133864201Y-81032114D01*
X133712629Y-81258957D01*
X133608225Y-81511011D01*
X133555000Y-81778589D01*
X129325000Y-81778589D01*
X129271775Y-81511011D01*
X129167371Y-81258957D01*
X129015799Y-81032114D01*
X128822886Y-80839201D01*
X128596043Y-80687629D01*
X128343989Y-80583225D01*
X128076411Y-80530000D01*
X127803589Y-80530000D01*
X127536011Y-80583225D01*
X127283957Y-80687629D01*
X127057114Y-80839201D01*
X126864201Y-81032114D01*
X126712629Y-81258957D01*
X126608225Y-81511011D01*
X126555000Y-81778589D01*
X124485000Y-81778589D01*
X124485000Y-77415000D01*
X128301928Y-77415000D01*
X128301928Y-79915000D01*
X128314188Y-80039482D01*
X128350498Y-80159180D01*
X128409463Y-80269494D01*
X128488815Y-80366185D01*
X128585506Y-80445537D01*
X128695820Y-80504502D01*
X128815518Y-80540812D01*
X128940000Y-80553072D01*
X130140000Y-80553072D01*
X130264482Y-80540812D01*
X130384180Y-80504502D01*
X130494494Y-80445537D01*
X130591185Y-80366185D01*
X130670537Y-80269494D01*
X130729502Y-80159180D01*
X130765812Y-80039482D01*
X130778072Y-79915000D01*
X130778072Y-77415000D01*
X131301928Y-77415000D01*
X131301928Y-79915000D01*
X131314188Y-80039482D01*
X131350498Y-80159180D01*
X131409463Y-80269494D01*
X131488815Y-80366185D01*
X131585506Y-80445537D01*
X131695820Y-80504502D01*
X131815518Y-80540812D01*
X131940000Y-80553072D01*
X133140000Y-80553072D01*
X133264482Y-80540812D01*
X133384180Y-80504502D01*
X133494494Y-80445537D01*
X133591185Y-80366185D01*
X133670537Y-80269494D01*
X133729502Y-80159180D01*
X133765812Y-80039482D01*
X133778072Y-79915000D01*
X133778072Y-78501729D01*
X134429803Y-77849999D01*
X135301928Y-77849999D01*
X135301928Y-79915000D01*
X135314188Y-80039482D01*
X135350498Y-80159180D01*
X135409463Y-80269494D01*
X135488815Y-80366185D01*
X135585506Y-80445537D01*
X135695820Y-80504502D01*
X135815518Y-80540812D01*
X135940000Y-80553072D01*
X137140000Y-80553072D01*
X137264482Y-80540812D01*
X137384180Y-80504502D01*
X137494494Y-80445537D01*
X137591185Y-80366185D01*
X137645365Y-80300166D01*
X140379428Y-83034230D01*
X140379428Y-83660000D01*
X140396492Y-83833254D01*
X140447028Y-83999850D01*
X140529095Y-84153386D01*
X140639538Y-84287962D01*
X140774114Y-84398405D01*
X140845000Y-84436295D01*
X140845001Y-84492023D01*
X140761613Y-84536595D01*
X140627038Y-84647038D01*
X140516595Y-84781613D01*
X140434528Y-84935149D01*
X140383992Y-85101745D01*
X140366928Y-85274999D01*
X140366928Y-86175001D01*
X140383992Y-86348255D01*
X140434528Y-86514851D01*
X140516595Y-86668387D01*
X140627038Y-86802962D01*
X140761613Y-86913405D01*
X140915149Y-86995472D01*
X141081745Y-87046008D01*
X141254999Y-87063072D01*
X141955001Y-87063072D01*
X142128255Y-87046008D01*
X142294851Y-86995472D01*
X142448387Y-86913405D01*
X142529637Y-86846724D01*
X142553815Y-86876185D01*
X142650506Y-86955537D01*
X142760820Y-87014502D01*
X142880518Y-87050812D01*
X143005000Y-87063072D01*
X143319250Y-87060000D01*
X143478000Y-86901250D01*
X143478000Y-85852000D01*
X143458000Y-85852000D01*
X143458000Y-85598000D01*
X143478000Y-85598000D01*
X143478000Y-85578000D01*
X143732000Y-85578000D01*
X143732000Y-85598000D01*
X143752000Y-85598000D01*
X143752000Y-85852000D01*
X143732000Y-85852000D01*
X143732000Y-86901250D01*
X143890750Y-87060000D01*
X144205000Y-87063072D01*
X144329482Y-87050812D01*
X144449180Y-87014502D01*
X144559494Y-86955537D01*
X144656185Y-86876185D01*
X144735537Y-86779494D01*
X144794502Y-86669180D01*
X144830812Y-86549482D01*
X144843072Y-86425000D01*
X144840000Y-86010750D01*
X144681252Y-85852002D01*
X144772597Y-85852002D01*
X144779528Y-85874851D01*
X144861595Y-86028387D01*
X144972038Y-86162962D01*
X145106613Y-86273405D01*
X145260149Y-86355472D01*
X145426745Y-86406008D01*
X145599999Y-86423072D01*
X146500001Y-86423072D01*
X146673255Y-86406008D01*
X146839851Y-86355472D01*
X146993387Y-86273405D01*
X147127962Y-86162962D01*
X147238405Y-86028387D01*
X147282976Y-85945000D01*
X149092678Y-85945000D01*
X149130000Y-85948676D01*
X149167322Y-85945000D01*
X149167333Y-85945000D01*
X149278986Y-85934003D01*
X149422247Y-85890546D01*
X149433875Y-85884331D01*
X149487296Y-85894957D01*
X149616015Y-85934002D01*
X149765000Y-85948676D01*
X149853087Y-85940000D01*
X150006260Y-85940000D01*
X150293158Y-85882932D01*
X150563411Y-85770990D01*
X150806632Y-85608475D01*
X151013475Y-85401632D01*
X151175990Y-85158411D01*
X151287932Y-84888158D01*
X151345000Y-84601260D01*
X151345000Y-84308740D01*
X151287932Y-84021842D01*
X151175990Y-83751589D01*
X151013475Y-83508368D01*
X150806632Y-83301525D01*
X150624466Y-83179805D01*
X150741355Y-83110178D01*
X150957588Y-82915269D01*
X151131641Y-82681920D01*
X151256825Y-82419099D01*
X151301476Y-82271890D01*
X151180155Y-82042000D01*
X149987000Y-82042000D01*
X149987000Y-82062000D01*
X149733000Y-82062000D01*
X149733000Y-82042000D01*
X148539845Y-82042000D01*
X148418524Y-82271890D01*
X148463175Y-82419099D01*
X148588359Y-82681920D01*
X148762412Y-82915269D01*
X148978645Y-83110178D01*
X149095534Y-83179805D01*
X148913368Y-83301525D01*
X148706525Y-83508368D01*
X148544010Y-83751589D01*
X148432068Y-84021842D01*
X148375000Y-84308740D01*
X148375000Y-84425000D01*
X147282976Y-84425000D01*
X147238405Y-84341613D01*
X147127962Y-84207038D01*
X147101109Y-84185000D01*
X147127962Y-84162962D01*
X147238405Y-84028387D01*
X147320472Y-83874851D01*
X147371008Y-83708255D01*
X147388072Y-83535001D01*
X147388072Y-82834999D01*
X147371008Y-82661745D01*
X147320472Y-82495149D01*
X147238405Y-82341613D01*
X147127962Y-82207038D01*
X146993387Y-82096595D01*
X146839851Y-82014528D01*
X146673255Y-81963992D01*
X146500001Y-81946928D01*
X145599999Y-81946928D01*
X145426745Y-81963992D01*
X145260149Y-82014528D01*
X145106613Y-82096595D01*
X144972038Y-82207038D01*
X144861595Y-82341613D01*
X144841002Y-82380139D01*
X144837972Y-82370150D01*
X144755905Y-82216614D01*
X144645462Y-82082038D01*
X144510886Y-81971595D01*
X144440000Y-81933706D01*
X144440000Y-81896294D01*
X144510886Y-81858405D01*
X144645462Y-81747962D01*
X144755905Y-81613386D01*
X144837972Y-81459850D01*
X144841002Y-81449861D01*
X144861595Y-81488387D01*
X144972038Y-81622962D01*
X145106613Y-81733405D01*
X145260149Y-81815472D01*
X145426745Y-81866008D01*
X145599999Y-81883072D01*
X146500001Y-81883072D01*
X146673255Y-81866008D01*
X146839851Y-81815472D01*
X146993387Y-81733405D01*
X147127962Y-81622962D01*
X147238405Y-81488387D01*
X147282976Y-81405000D01*
X148465986Y-81405000D01*
X148463175Y-81410901D01*
X148418524Y-81558110D01*
X148539845Y-81788000D01*
X149733000Y-81788000D01*
X149733000Y-81768000D01*
X149987000Y-81768000D01*
X149987000Y-81788000D01*
X151180155Y-81788000D01*
X151301476Y-81558110D01*
X151256825Y-81410901D01*
X151131641Y-81148080D01*
X150957588Y-80914731D01*
X150873534Y-80838966D01*
X150954180Y-80814502D01*
X151064494Y-80755537D01*
X151161185Y-80676185D01*
X151240537Y-80579494D01*
X151299502Y-80469180D01*
X151335812Y-80349482D01*
X151348072Y-80225000D01*
X151348072Y-78525000D01*
X151335812Y-78400518D01*
X151299502Y-78280820D01*
X151240537Y-78170506D01*
X151161185Y-78073815D01*
X151064494Y-77994463D01*
X150954180Y-77935498D01*
X150834482Y-77899188D01*
X150710000Y-77886928D01*
X149010000Y-77886928D01*
X148885518Y-77899188D01*
X148765820Y-77935498D01*
X148655506Y-77994463D01*
X148558815Y-78073815D01*
X148479463Y-78170506D01*
X148420498Y-78280820D01*
X148384188Y-78400518D01*
X148371928Y-78525000D01*
X148371928Y-79788271D01*
X148275199Y-79885000D01*
X147282976Y-79885000D01*
X147238405Y-79801613D01*
X147171724Y-79720363D01*
X147201185Y-79696185D01*
X147280537Y-79599494D01*
X147339502Y-79489180D01*
X147375812Y-79369482D01*
X147388072Y-79245000D01*
X147385000Y-78930750D01*
X147226250Y-78772000D01*
X146177000Y-78772000D01*
X146177000Y-78792000D01*
X145923000Y-78792000D01*
X145923000Y-78772000D01*
X145903000Y-78772000D01*
X145903000Y-78518000D01*
X145923000Y-78518000D01*
X145923000Y-77568750D01*
X146177000Y-77568750D01*
X146177000Y-78518000D01*
X147226250Y-78518000D01*
X147385000Y-78359250D01*
X147388072Y-78045000D01*
X147375812Y-77920518D01*
X147339502Y-77800820D01*
X147280537Y-77690506D01*
X147201185Y-77593815D01*
X147104494Y-77514463D01*
X146994180Y-77455498D01*
X146874482Y-77419188D01*
X146750000Y-77406928D01*
X146335750Y-77410000D01*
X146177000Y-77568750D01*
X145923000Y-77568750D01*
X145764250Y-77410000D01*
X145350000Y-77406928D01*
X145225518Y-77419188D01*
X145105820Y-77455498D01*
X144995506Y-77514463D01*
X144898815Y-77593815D01*
X144841151Y-77664079D01*
X144843072Y-77405000D01*
X144830812Y-77280518D01*
X144794502Y-77160820D01*
X144735537Y-77050506D01*
X144656185Y-76953815D01*
X144559494Y-76874463D01*
X144449180Y-76815498D01*
X144329482Y-76779188D01*
X144205000Y-76766928D01*
X143890750Y-76770000D01*
X143732000Y-76928750D01*
X143732000Y-77978000D01*
X143752000Y-77978000D01*
X143752000Y-78232000D01*
X143732000Y-78232000D01*
X143732000Y-78252000D01*
X143478000Y-78252000D01*
X143478000Y-78232000D01*
X143458000Y-78232000D01*
X143458000Y-77978000D01*
X143478000Y-77978000D01*
X143478000Y-76928750D01*
X143319250Y-76770000D01*
X143005000Y-76766928D01*
X142880518Y-76779188D01*
X142760820Y-76815498D01*
X142650506Y-76874463D01*
X142553815Y-76953815D01*
X142529637Y-76983276D01*
X142448387Y-76916595D01*
X142294851Y-76834528D01*
X142128255Y-76783992D01*
X141955001Y-76766928D01*
X141341729Y-76766928D01*
X141153803Y-76579001D01*
X141130000Y-76549998D01*
X141014275Y-76455025D01*
X140882246Y-76384453D01*
X140738985Y-76340996D01*
X140627332Y-76329999D01*
X140627321Y-76329999D01*
X140589999Y-76326323D01*
X140552677Y-76329999D01*
X134152326Y-76329999D01*
X134115001Y-76326323D01*
X134077676Y-76329999D01*
X134077668Y-76329999D01*
X133966015Y-76340996D01*
X133822754Y-76384453D01*
X133690725Y-76455025D01*
X133575000Y-76549998D01*
X133551202Y-76578996D01*
X133323199Y-76807000D01*
X133264482Y-76789188D01*
X133140000Y-76776928D01*
X131940000Y-76776928D01*
X131815518Y-76789188D01*
X131695820Y-76825498D01*
X131585506Y-76884463D01*
X131488815Y-76963815D01*
X131409463Y-77060506D01*
X131350498Y-77170820D01*
X131314188Y-77290518D01*
X131301928Y-77415000D01*
X130778072Y-77415000D01*
X130765812Y-77290518D01*
X130729502Y-77170820D01*
X130670537Y-77060506D01*
X130591185Y-76963815D01*
X130494494Y-76884463D01*
X130384180Y-76825498D01*
X130264482Y-76789188D01*
X130140000Y-76776928D01*
X128940000Y-76776928D01*
X128815518Y-76789188D01*
X128695820Y-76825498D01*
X128585506Y-76884463D01*
X128488815Y-76963815D01*
X128409463Y-77060506D01*
X128350498Y-77170820D01*
X128314188Y-77290518D01*
X128301928Y-77415000D01*
X124485000Y-77415000D01*
X124485000Y-76232275D01*
X124485666Y-76225487D01*
X124490301Y-76225000D01*
X151732725Y-76225000D01*
X151739513Y-76225666D01*
G37*
%TD.AperFunction*%
%TD*%
M02*
